<svg xmlns="http://www.w3.org/2000/svg" width="32" height="32" viewBox="0 0 8.467 8.467"><g transform="matrix(.26458 0 0 .26458 476.692 -486.153)"><path fill="#484666" fill-rule="evenodd" style="line-height:normal;font-variant-ligatures:normal;font-variant-position:normal;font-variant-caps:normal;font-variant-numeric:normal;font-variant-alternates:normal;font-feature-settings:normal;text-indent:0;text-align:start;text-decoration-line:none;text-decoration-style:solid;text-decoration-color:#000;text-transform:none;text-orientation:mixed;shape-padding:0;isolation:auto;mix-blend-mode:normal" d="m -1776.1699,1844.9281 -19,0.023 c -0.8225,0 -1.5,0.6775 -1.5,1.5 v 12.4766 c -0.8334,0 -1.6667,0 -2.5,0 -0.2762,0 -0.5,0.2239 -0.5,0.5 -10e-5,1.3748 1.1252,2.5 2.5,2.5 h 23 c 1.3745,0 2.5,-1.1235 2.5,-2.498 v 0 c -10e-5,-0.2762 -0.2239,-0.5 -0.5,-0.5 -0.8334,0 -1.6667,0 -2.5,0 v -12.5 c 0,-0.8226 -0.6775,-1.501 -1.5,-1.5 z" color="#000" font-family="sans-serif" font-weight="400" overflow="visible" white-space="normal"/><path fill="#a8c9ce" fill-rule="evenodd" style="line-height:normal;font-variant-ligatures:normal;font-variant-position:normal;font-variant-caps:normal;font-variant-numeric:normal;font-variant-alternates:normal;font-feature-settings:normal;text-indent:0;text-align:start;text-decoration-line:none;text-decoration-style:solid;text-decoration-color:#000;text-transform:none;text-orientation:mixed;shape-padding:0;isolation:auto;mix-blend-mode:normal" d="m -1776.1699,1845.9281 c 0.2816,-3e-4 0.5,0.2183 0.5,0.5 v 12.5 c -6.6667,0 -13.3334,0 -20,0 v -12.4766 c 0,-0.2824 0.2175,-0.4996 0.5,-0.5 z" color="#000" font-family="sans-serif" font-weight="400" overflow="visible" white-space="normal"/><path fill="#6597b2" fill-rule="evenodd" style="line-height:normal;font-variant-ligatures:normal;font-variant-position:normal;font-variant-caps:normal;font-variant-numeric:normal;font-variant-alternates:normal;font-feature-settings:normal;text-indent:0;text-align:start;text-decoration-line:none;text-decoration-style:solid;text-decoration-color:#000;text-transform:none;text-orientation:mixed;shape-padding:0;isolation:auto;mix-blend-mode:normal" d="m -1798.4649,1859.9281 h 25.5899 c -0.218,0.5572 -0.6563,1 -1.2949,1 h -23 c -0.6385,0 -1.0767,-0.4431 -1.295,-1 z" color="#000" font-family="sans-serif" font-weight="400" overflow="visible" white-space="normal"/><path fill="#8ac6ce" fill-rule="evenodd" style="line-height:normal;font-variant-ligatures:normal;font-variant-position:normal;font-variant-caps:normal;font-variant-numeric:normal;font-variant-alternates:normal;font-feature-settings:normal;text-indent:0;text-align:start;text-decoration-line:none;text-decoration-style:solid;text-decoration-color:#000;text-transform:none;text-orientation:mixed;shape-padding:0;isolation:auto;mix-blend-mode:normal" d="M-1795.6699 1858.1783v.75c6.6666 0 13.3333 0 20 0v-.75c-6.6667 0-13.3334 0-20 0zM-1792.3828 1847.8691a.50004997.50004997 0 1 0 0 1h1.164c.1663 0 .3289.1133.3926.3223l1.582 5.8105a.50004997.50004997 0 0 0 .4824.3672h5.6114c.4282 0 .794-.2972.914-.6933l1.3028-4.2696c.1849-.6106-.2533-1.2851-.9121-1.2851h-7.9629l-.057-.2051a.50004997.50004997 0 0 0 0-.014c-.1819-.5969-.7241-1.0313-1.3496-1.0313z" color="#000" font-family="sans-serif" font-weight="400" overflow="visible" white-space="normal"/><path fill="#484666" fill-rule="evenodd" style="line-height:normal;font-variant-ligatures:normal;font-variant-position:normal;font-variant-caps:normal;font-variant-numeric:normal;font-variant-alternates:normal;font-feature-settings:normal;text-indent:0;text-align:start;text-decoration-line:none;text-decoration-style:solid;text-decoration-color:#000;text-transform:none;text-orientation:mixed;shape-padding:0;isolation:auto;mix-blend-mode:normal" d="m -1792.1618,1847.4272 a 0.50004997,0.50004997 0 1 0 0,1 h 1.164 c 0.1663,0 0.3289,0.1133 0.3926,0.3223 l 1.582,5.8105 a 0.50004997,0.50004997 0 0 0 0.4824,0.3672 h 5.6114 c 0.4282,0 0.794,-0.2972 0.914,-0.6933 l 1.3028,-4.2696 c 0.1849,-0.6106 -0.2533,-1.2851 -0.9121,-1.2851 h -7.9629 l -0.057,-0.2051 a 0.50004997,0.50004997 0 0 0 0,-0.014 c -0.1819,-0.5969 -0.7241,-1.0313 -1.3496,-1.0313 z" color="#000" font-family="sans-serif" font-weight="400" overflow="visible" white-space="normal"/><path fill="#e9af7f" fill-rule="evenodd" style="line-height:normal;font-variant-ligatures:normal;font-variant-position:normal;font-variant-caps:normal;font-variant-numeric:normal;font-variant-alternates:normal;font-feature-settings:normal;text-indent:0;text-align:start;text-decoration-line:none;text-decoration-style:solid;text-decoration-color:#000;text-transform:none;text-orientation:mixed;shape-padding:0;isolation:auto;mix-blend-mode:normal" d="m -1789.3161,1849.6772 h 7.6464 l -1.2988,4.248 h -5.1894 z" color="#000" font-family="sans-serif" font-weight="400" overflow="visible" white-space="normal"/><path fill="#484666" fill-rule="evenodd" style="line-height:normal;font-variant-ligatures:normal;font-variant-position:normal;font-variant-caps:normal;font-variant-numeric:normal;font-variant-alternates:normal;font-feature-settings:normal;text-indent:0;text-align:start;text-decoration-line:none;text-decoration-style:solid;text-decoration-color:#000;text-transform:none;text-orientation:mixed;shape-padding:0;isolation:auto;mix-blend-mode:normal" d="M-1787.5193 1850.4663a.50005.50005 0 1 0 0 1h5.961a.50005.50005 0 1 0 0-1zM-1786.7536 1852.1772a.50004988.50004988 0 1 0 0 1h4.5546a.50004988.50004988 0 1 0 0-1zM-1788.1694 1855.6772v1h1v-1zM-1784.1694 1855.6772v1h1v-1z" color="#000" font-family="sans-serif" font-weight="400" overflow="visible" white-space="normal"/><path fill="#5a89ac" fill-rule="evenodd" style="line-height:normal;font-variant-ligatures:normal;font-variant-position:normal;font-variant-caps:normal;font-variant-numeric:normal;font-variant-alternates:normal;font-feature-settings:normal;text-indent:0;text-align:start;text-decoration-line:none;text-decoration-style:solid;text-decoration-color:#000;text-transform:none;text-orientation:mixed;shape-padding:0;isolation:auto;mix-blend-mode:normal" d="m -1798.4648,839.56641 c 0.067,0.17076 0.1618,0.32301 0.2695,0.46289 h 25.0508 c 0.1077,-0.13988 0.2027,-0.29203 0.2695,-0.46289 z" color="#000" font-family="sans-serif" font-weight="400" overflow="visible" transform="translate(0 1020.362)" white-space="normal"/></g></svg>