<svg xmlns="http://www.w3.org/2000/svg" width="16" height="16" viewBox="0 0 16 16"><path style="line-height:normal;text-indent:0;text-align:start;text-decoration-line:none;text-decoration-style:solid;text-decoration-color:#000;text-transform:none;block-progression:tb;isolation:auto;mix-blend-mode:normal" d="M 0.99804688 4 L 0.99804688 12 L 10.998047 12 L 10.998047 11 L 1.9980469 11 L 1.9980469 5.5859375 L 6.9941406 8.5839844 L 11.998047 5.5820312 L 11.998047 6 L 12.998047 6 L 12.998047 4 L 0.99804688 4 z M 2.9648438 5 L 11.023438 5 L 6.9941406 7.4179688 L 2.9648438 5 z M 11.994141 5 L 11.998047 5 L 11.998047 5.0078125 L 11.994141 5 z M 12.488281 6.7207031 L 10.582031 9 L 11.980469 9 L 11.980469 12 L 12.980469 12 L 12.980469 9 L 14.388672 9 L 13.705078 8.1816406 L 12.488281 6.7207031 z " color="#000" font-family="sans-serif" font-weight="400" overflow="visible" white-space="normal"/></svg>