<svg xmlns="http://www.w3.org/2000/svg" width="32" height="32" viewBox="0 0 32 32"><g transform="translate(0 -1020.362)"><path style="line-height:normal;text-indent:0;text-align:start;text-decoration-line:none;text-decoration-style:solid;text-decoration-color:#000;text-transform:none;block-progression:tb;isolation:auto;mix-blend-mode:normal" fill="#2b4255" d="m 4.5,1027.3613 a 0.50005,0.50005 0 0 0 -0.5,0.5 l 0,4 a 0.50005,0.50005 0 0 0 0.5,0.5 l 5.773438,0 a 0.50005,0.50005 0 1 0 0,-1 l -5.273438,0 0,-3 22.091797,0 0,3 -5.273438,0 a 0.50005,0.50005 0 1 0 0,1 l 5.773438,0 a 0.50005,0.50005 0 0 0 0.5,-0.5 l 0,-4 a 0.50005,0.50005 0 0 0 -0.5,-0.5 l -23.091797,0 z" color="#000" font-family="sans-serif" font-weight="400" overflow="visible" white-space="normal"/><path style="line-height:normal;text-indent:0;text-align:start;text-decoration-line:none;text-decoration-style:solid;text-decoration-color:#000;text-transform:none;block-progression:tb;isolation:auto;mix-blend-mode:normal" fill="#2b4255" d="M 5.4980469,1031.3613 A 0.49731223,0.49731223 0 0 0 5,1031.8594 l 0,16.0058 a 0.49731223,0.49731223 0 0 0 0.4980469,0.4961 l 21.0039061,0 A 0.49731223,0.49731223 0 0 0 27,1047.8652 l 0,-2.0019 0,-2 a 0.49731223,0.49731223 0 1 0 -0.994141,0 l 0,2 0,1.5039 -20.0117184,0 0,-15.0098 8.5234374,0 a 0.49805,0.49805 0 0 0 0,-0.9961 l -9.0195311,0 z m 11.9843751,0 a 0.49805,0.49805 0 1 0 0,0.9961 l 8.523437,0 0,1.502 0,2.0019 0,2 a 0.49731223,0.49731223 0 1 0 0.994141,0 l 0,-2 0,-2.0019 0,-2 a 0.49731223,0.49731223 0 0 0 -0.498047,-0.4981 l -9.019531,0 z m 9.013672,7.9961 a 0.49731223,0.49731223 0 0 0 -0.490235,0.5039 l 0,2.002 a 0.49731223,0.49731223 0 1 0 0.994141,0 l 0,-2.002 a 0.49731223,0.49731223 0 0 0 -0.503906,-0.5039 z" color="#000" font-family="sans-serif" font-weight="400" overflow="visible" white-space="normal"/><path style="line-height:normal;text-indent:0;text-align:start;text-decoration-line:none;text-decoration-style:solid;text-decoration-color:#000;text-transform:none;block-progression:tb;isolation:auto;mix-blend-mode:normal" fill="#f05542" d="m 18.248047,1023.3613 a 0.50005,0.50005 0 0 0 -0.447266,0.2617 l -2.177734,4 a 0.50005,0.50005 0 0 0 0.439453,0.7383 l 4.484375,0 a 0.50005,0.50005 0 0 0 0.5,-0.5 c 2.6e-5,-1.8389 -0.978429,-3.5364 -2.560547,-4.4336 a 0.50005,0.50005 0 0 0 -0.238281,-0.066 z m 0.121094,1.3106 c 0.859738,0.6565 1.404871,1.5976 1.544921,2.6894 l -3.009765,0 1.464844,-2.6894 z" color="#000" font-family="sans-serif" font-weight="400" overflow="visible" white-space="normal"/><path style="line-height:normal;text-indent:0;text-align:start;text-decoration-line:none;text-decoration-style:solid;text-decoration-color:#000;text-transform:none;block-progression:tb;isolation:auto;mix-blend-mode:normal" fill="#f05542" d="m 13.914062,1023.3613 a 0.50005,0.50005 0 0 0 -0.232421,0.066 c -1.582118,0.8972 -2.560573,2.5947 -2.560547,4.4336 a 0.50005,0.50005 0 0 0 0.5,0.5 l 4.484375,0 a 0.50005,0.50005 0 0 0 0.439453,-0.7383 l -2.177734,-4 a 0.50005,0.50005 0 0 0 -0.453126,-0.2617 z m -0.115234,1.3106 1.464844,2.6894 -3.009766,0 c 0.14005,-1.0918 0.685184,-2.0329 1.544922,-2.6894 z" color="#000" font-family="sans-serif" font-weight="400" overflow="visible" white-space="normal"/><path style="line-height:normal;text-indent:0;text-align:start;text-decoration-line:none;text-decoration-style:solid;text-decoration-color:#000;text-transform:none;block-progression:tb;isolation:auto;mix-blend-mode:normal" fill="#f05542" d="m 14.546875,1027.3613 a 0.50004997,0.50004997 0 0 0 -0.5,0.5 l 0,20 a 0.50004997,0.50004997 0 0 0 0.5,0.5 l 3,0 a 0.50004997,0.50004997 0 0 0 0.5,-0.5 l 0,-20 a 0.50004997,0.50004997 0 0 0 -0.5,-0.5 l -3,0 z m 0.5,1 2,0 0,19 -2,0 0,-19 z" color="#000" font-family="sans-serif" font-weight="400" overflow="visible" white-space="normal"/></g></svg>