<?xml version="1.0" encoding="UTF-8"?><svg xmlns="http://www.w3.org/2000/svg" xmlns:xlink="http://www.w3.org/1999/xlink" version="1.1" id="Layer_1" x="0px" y="0px" viewBox="0 0 16 16" xml:space="preserve"><circle cx="11.9999866" cy="14" r="2"/><circle cx="5.9999862" cy="14" r="2"/><path d="M15.798 2.398A1 1 0 0 0 15 2H3.68L3.487.835A1 1 0 0 0 2.5 0H0v2h1.653l1.36 8.165A1 1 0 0 0 4 11h9a1 1 0 0 0 .961-.725l2-7a1 1 0 0 0-.163-.877zM12.246 9H4.847l-.833-5h9.66l-1.428 5z"/><metadata><rdf:RDF xmlns:rdf="http://www.w3.org/1999/02/22-rdf-syntax-ns#" xmlns:rdfs="http://www.w3.org/2000/01/rdf-schema#" xmlns:dc="http://purl.org/dc/elements/1.1/"><rdf:Description about="https://iconscout.com/legal#licenses" dc:title="shopping-cart" dc:description="shopping-cart" dc:publisher="Iconscout" dc:date="2018-06-06" dc:format="image/svg+xml" dc:language="en"><dc:creator><rdf:Bag><rdf:li>Those Icons</rdf:li></rdf:Bag></dc:creator></rdf:Description></rdf:RDF></metadata></svg>