<svg xmlns="http://www.w3.org/2000/svg" width="32" height="32" viewBox="0 0 32 32"><path fill-rule="evenodd" d="M 11.501953 2 C 8.4800521 2 6.0214529 4.4692 6.0214844 7.5 C 6.0215133 10.5308 8.4800946 13 11.501953 13 C 14.523811 13 16.982393 10.5308 16.982422 7.5 C 16.982453 4.4692 14.523853 2 11.501953 2 z M 11.501953 3 C 13.981228 3 15.982447 5.0075 15.982422 7.5 C 15.982398 9.9925 13.981193 12 11.501953 12 C 9.0227131 12 7.0215081 9.9925 7.0214844 7.5 C 7.0214585 5.0075 9.0226771 3 11.501953 3 z M 24.625 7.7304688 A 0.50005 0.50005 0 0 0 24.125 8.2304688 L 24.125 8.7421875 C 23.980818 8.7921875 23.84048 8.8479625 23.703125 8.9140625 L 23.341797 8.5546875 A 0.50005 0.50005 0 0 0 22.634766 8.5546875 L 21.574219 9.6152344 A 0.50005 0.50005 0 0 0 21.574219 10.322266 L 21.935547 10.683594 C 21.868807 10.821194 21.809782 10.960969 21.759766 11.105469 L 21.25 11.105469 A 0.50005 0.50005 0 0 0 20.75 11.605469 L 20.75 13.105469 A 0.50005 0.50005 0 0 0 21.25 13.605469 L 21.761719 13.605469 C 21.811219 13.749669 21.867468 13.889944 21.933594 14.027344 L 21.574219 14.388672 A 0.50005 0.50005 0 0 0 21.574219 15.095703 L 22.634766 16.15625 A 0.50005 0.50005 0 0 0 23.341797 16.15625 L 23.703125 15.794922 C 23.840538 15.861922 23.980694 15.91885 24.125 15.96875 L 24.125 16.480469 A 0.50005 0.50005 0 0 0 24.625 16.980469 L 26.125 16.980469 A 0.50005 0.50005 0 0 0 26.625 16.480469 L 26.625 15.96875 C 26.769418 15.91875 26.909307 15.861222 27.046875 15.794922 L 27.408203 16.15625 A 0.50005 0.50005 0 0 0 28.115234 16.15625 L 29.175781 15.095703 A 0.50005 0.50005 0 0 0 29.175781 14.388672 L 28.814453 14.027344 C 28.881193 13.889644 28.940221 13.749969 28.990234 13.605469 L 29.5 13.605469 A 0.50005 0.50005 0 0 0 30 13.105469 L 30 11.605469 A 0.50005 0.50005 0 0 0 29.5 11.105469 L 28.988281 11.105469 C 28.938701 10.961069 28.880712 10.821194 28.814453 10.683594 L 29.175781 10.322266 A 0.50005 0.50005 0 0 0 29.175781 9.6152344 L 28.115234 8.5546875 A 0.50005 0.50005 0 0 0 27.408203 8.5546875 L 27.046875 8.9160156 C 26.909251 8.8490156 26.769543 8.7902344 26.625 8.7402344 L 26.625 8.2304688 A 0.50005 0.50005 0 0 0 26.125 7.7304688 L 24.625 7.7304688 z M 25.125 8.7304688 L 25.625 8.7304688 L 25.625 9.0683594 A 0.50005 0.50005 0 0 0 26.013672 9.5566406 C 26.328835 9.6286406 26.630528 9.7519281 26.904297 9.9238281 A 0.50005 0.50005 0 0 0 27.523438 9.8535156 L 27.761719 9.6152344 L 28.115234 9.96875 L 27.876953 10.205078 A 0.50005 0.50005 0 0 0 27.806641 10.824219 C 27.977751 11.098619 28.10291 11.399344 28.173828 11.714844 A 0.50005 0.50005 0 0 0 28.660156 12.105469 L 29 12.105469 L 29 12.605469 L 28.662109 12.605469 A 0.50005 0.50005 0 0 0 28.173828 12.994141 C 28.102008 13.309241 27.978499 13.610966 27.806641 13.884766 A 0.50005 0.50005 0 0 0 27.876953 14.503906 L 28.115234 14.742188 L 27.761719 15.095703 L 27.525391 14.857422 A 0.50005 0.50005 0 0 0 26.90625 14.787109 C 26.631938 14.958209 26.331051 15.081444 26.015625 15.152344 A 0.50005 0.50005 0 0 0 25.625 15.640625 L 25.625 15.980469 L 25.125 15.980469 L 25.125 15.642578 A 0.50005 0.50005 0 0 0 24.736328 15.154297 C 24.42117 15.082297 24.119478 14.959009 23.845703 14.787109 A 0.50005 0.50005 0 0 0 23.226562 14.855469 L 22.988281 15.09375 L 22.634766 14.740234 L 22.873047 14.501953 A 0.50005 0.50005 0 0 0 22.943359 13.884766 C 22.772249 13.610466 22.64709 13.309641 22.576172 12.994141 A 0.50005 0.50005 0 0 0 22.089844 12.603516 L 21.75 12.603516 L 21.75 12.103516 L 22.087891 12.103516 A 0.50005 0.50005 0 0 0 22.576172 11.714844 C 22.648002 11.399744 22.771507 11.098019 22.943359 10.824219 A 0.50005 0.50005 0 0 0 22.873047 10.205078 L 22.634766 9.9667969 L 22.988281 9.6132812 L 23.224609 9.8496094 A 0.50005 0.50005 0 0 0 23.84375 9.921875 C 24.118059 9.750775 24.418952 9.6255875 24.734375 9.5546875 A 0.50005 0.50005 0 0 0 25.125 9.0683594 L 25.125 8.7304688 z M 25.375 10.708984 C 24.47208 10.708984 23.728516 11.452469 23.728516 12.355469 C 23.728516 13.258369 24.471816 14.001953 25.375 14.001953 C 26.278179 14.001953 27.021484 13.258369 27.021484 12.355469 C 27.021484 11.452469 26.277914 10.708984 25.375 10.708984 z M 25.375 11.708984 C 25.731726 11.708984 26.021484 11.998669 26.021484 12.355469 C 26.021484 12.712169 25.731461 13.001953 25.375 13.001953 C 25.018524 13.001953 24.728516 12.712169 24.728516 12.355469 C 24.728516 11.998669 25.01826 11.708984 25.375 11.708984 z M 8.5214844 14 C 4.3738557 14 1.0214844 17.368197 1.0214844 21.529297 L 1.0214844 26.044922 C 1.021512 26.321122 1.2453534 26.544922 1.5214844 26.544922 L 5.375 26.544922 A 0.50004994 0.50004994 0 0 0 5.6679688 26.544922 L 14.121094 26.544922 C 14.180714 26.364022 14.269487 26.191962 14.394531 26.039062 C 14.006005 26.000063 13.653628 25.816722 13.402344 25.544922 L 6.0214844 25.544922 L 6.0214844 21.523438 A 0.50004994 0.50004994 0 0 0 5.5136719 21.015625 A 0.50004994 0.50004994 0 0 0 5.0214844 21.523438 L 5.0214844 25.544922 L 2.0214844 25.544922 L 2.0214844 21.529297 C 2.0214844 17.902697 4.9127509 15 8.5214844 15 L 14.521484 15 C 16.026297 15 17.402313 15.509928 18.5 16.361328 C 18.750204 16.139428 19.07051 16 19.429688 16 L 19.603516 16 C 18.267355 14.7615 16.486823 14 14.521484 14 L 8.5214844 14 z M 19.429688 17.001953 A 0.50004997 0.50004997 0 0 0 18.929688 17.501953 L 18.929688 18.394531 C 18.619418 18.490531 18.321302 18.613772 18.033203 18.763672 L 17.404297 18.134766 A 0.50004997 0.50004997 0 0 0 16.697266 18.134766 L 15.154297 19.677734 A 0.50004997 0.50004997 0 0 0 15.154297 20.384766 L 15.783203 21.013672 C 15.63254 21.301472 15.508802 21.600056 15.412109 21.910156 L 14.521484 21.910156 A 0.50004997 0.50004997 0 0 0 14.021484 22.410156 L 14.021484 24.591797 A 0.50004997 0.50004997 0 0 0 14.521484 25.091797 L 15.414062 25.091797 C 15.509913 25.402097 15.631386 25.702034 15.78125 25.990234 L 15.154297 26.619141 A 0.50004997 0.50004997 0 0 0 15.154297 27.326172 L 16.697266 28.869141 A 0.50004997 0.50004997 0 0 0 17.404297 28.869141 L 18.033203 28.238281 C 18.321116 28.389081 18.619427 28.512675 18.929688 28.609375 L 18.929688 29.501953 A 0.50004997 0.50004997 0 0 0 19.429688 30.001953 L 21.611328 30.001953 A 0.50004997 0.50004997 0 0 0 22.111328 29.501953 L 22.111328 28.607422 C 22.421637 28.511422 22.721629 28.390034 23.009766 28.240234 L 23.638672 28.869141 A 0.50004997 0.50004997 0 0 0 24.345703 28.869141 L 25.888672 27.326172 A 0.50004997 0.50004997 0 0 0 25.888672 26.619141 L 25.257812 25.988281 C 25.408572 25.700381 25.532167 25.402097 25.628906 25.091797 L 26.521484 25.091797 A 0.50004997 0.50004997 0 0 0 27.021484 24.591797 L 27.021484 22.410156 A 0.50004997 0.50004997 0 0 0 26.521484 21.910156 L 25.626953 21.910156 C 25.531153 21.600156 25.409473 21.301572 25.259766 21.013672 L 25.888672 20.384766 A 0.50004997 0.50004997 0 0 0 25.888672 19.677734 L 24.345703 18.134766 A 0.50004997 0.50004997 0 0 0 23.638672 18.134766 L 23.007812 18.765625 C 22.719804 18.614725 22.421705 18.489378 22.111328 18.392578 L 22.111328 17.501953 A 0.50004997 0.50004997 0 0 0 21.611328 17.001953 L 19.429688 17.001953 z M 19.929688 18.001953 L 21.111328 18.001953 L 21.111328 18.720703 A 0.50004997 0.50004997 0 0 0 21.5 19.207031 C 21.983329 19.317131 22.445382 19.507984 22.865234 19.771484 A 0.50004997 0.50004997 0 0 0 23.484375 19.703125 L 23.992188 19.195312 L 24.828125 20.03125 L 24.322266 20.535156 A 0.50004997 0.50004997 0 0 0 24.251953 21.154297 C 24.514351 21.574997 24.703734 22.035731 24.8125 22.519531 A 0.50004997 0.50004997 0 0 0 25.300781 22.910156 L 26.021484 22.910156 L 26.021484 24.091797 L 25.302734 24.091797 A 0.50004997 0.50004997 0 0 0 24.814453 24.480469 C 24.704308 24.963769 24.513553 25.425903 24.25 25.845703 A 0.50004997 0.50004997 0 0 0 24.320312 26.464844 L 24.828125 26.972656 L 23.992188 27.808594 L 23.486328 27.302734 A 0.50004997 0.50004997 0 0 0 22.869141 27.232422 C 22.448462 27.494722 21.985685 27.684169 21.501953 27.792969 A 0.50004997 0.50004997 0 0 0 21.111328 28.28125 L 21.111328 29.001953 L 19.929688 29.001953 L 19.929688 28.283203 A 0.50004997 0.50004997 0 0 0 19.541016 27.794922 C 19.057692 27.684822 18.59564 27.493969 18.175781 27.230469 A 0.50004997 0.50004997 0 0 0 17.556641 27.300781 L 17.050781 27.808594 L 16.214844 26.972656 L 16.71875 26.466797 A 0.50004997 0.50004997 0 0 0 16.791016 25.849609 C 16.528608 25.429009 16.339225 24.966122 16.230469 24.482422 A 0.50004997 0.50004997 0 0 0 15.742188 24.091797 L 15.021484 24.091797 L 15.021484 22.910156 L 15.740234 22.910156 A 0.50004997 0.50004997 0 0 0 16.226562 22.521484 C 16.336717 22.038184 16.527472 21.57605 16.791016 21.15625 A 0.50004997 0.50004997 0 0 0 16.722656 20.537109 L 16.214844 20.03125 L 17.050781 19.195312 L 17.554688 19.699219 A 0.50004997 0.50004997 0 0 0 18.173828 19.771484 C 18.594507 19.509084 19.055331 19.319637 19.539062 19.210938 A 0.50004997 0.50004997 0 0 0 19.929688 18.722656 L 19.929688 18.001953 z M 20.521484 21.001953 C 19.14938 21.001953 18.021484 22.1278 18.021484 23.5 C 18.021484 24.8721 19.149016 26.001953 20.521484 26.001953 C 21.893952 26.001953 23.019531 24.8721 23.019531 23.5 C 23.019531 22.1278 21.893588 21.001953 20.521484 21.001953 z M 20.521484 22.001953 C 21.34748 22.001953 22.019531 22.6739 22.019531 23.5 C 22.019531 24.3259 21.347116 25.001953 20.521484 25.001953 C 19.695852 25.001953 19.021484 24.3259 19.021484 23.5 C 19.021484 22.6739 19.695488 22.001953 20.521484 22.001953 z " color="#000" font-family="sans-serif" font-weight="400" overflow="visible" white-space="normal" style="line-height:normal;text-indent:0;text-align:start;text-decoration-line:none;text-decoration-style:solid;text-decoration-color:#000;text-transform:none;block-progression:tb;isolation:auto;mix-blend-mode:normal"/></svg>