<?xml version="1.0" standalone="no"?>
<!DOCTYPE svg PUBLIC "-//W3C//DTD SVG 20010904//EN"
 "http://www.w3.org/TR/2001/REC-SVG-20010904/DTD/svg10.dtd">
<svg version="1.0" xmlns="http://www.w3.org/2000/svg"
 width="512.000000pt" height="512.000000pt" viewBox="0 0 512.000000 512.000000"
 preserveAspectRatio="xMidYMid meet">
<metadata>
Created by potrace 1.11, written by Peter Selinger 2001-2013
</metadata>
<g transform="translate(0.000000,512.000000) scale(0.100000,-0.100000)"
fill="#000000" stroke="none">
<path d="M2289 4536 c-2 -2 -35 -7 -74 -11 -38 -3 -79 -8 -90 -11 -11 -2 -32
-6 -47 -9 -183 -34 -354 -93 -538 -187 -63 -33 -119 -63 -123 -67 -5 -5 -34 0
-65 12 -51 18 -83 21 -311 23 l-254 3 -28 -28 c-22 -23 -27 -35 -24 -62 5 -39
36 -69 74 -70 14 0 116 -1 226 -1 l199 0 -59 -51 c-93 -80 -199 -191 -270
-280 -36 -45 -69 -86 -73 -92 -30 -37 -139 -226 -176 -305 -82 -174 -150 -406
-173 -590 -16 -129 -9 -480 12 -580 2 -8 11 -51 20 -95 70 -338 269 -705 521
-960 104 -106 246 -224 304 -255 14 -7 27 -16 30 -20 3 -5 54 -35 114 -69 113
-62 301 -142 396 -168 238 -64 332 -77 565 -78 191 0 247 5 396 35 251 51 480
145 701 289 l92 61 14 -29 c56 -116 199 -189 330 -169 286 44 371 428 128 580
-28 17 -53 33 -55 34 -3 3 89 148 108 171 8 8 67 12 203 11 252 0 235 -2 263
27 35 34 33 76 -4 108 -29 24 -34 24 -196 24 -91 0 -168 3 -171 6 -3 3 0 15 6
27 17 31 57 142 85 230 62 202 85 383 79 620 -3 96 -5 180 -6 185 -1 9 53 177
201 635 46 140 39 213 -27 290 -68 80 -85 84 -360 86 l-244 2 -66 73 c-130
142 -242 238 -389 335 -45 30 -84 54 -87 54 -3 0 -26 13 -52 30 -51 32 -230
110 -323 140 -86 29 -249 68 -311 75 -30 4 -59 9 -64 13 -10 6 -401 14 -407 8z
m2156 -899 c55 -29 56 -58 7 -201 l-37 -110 -50 1 c-27 1 -59 2 -70 2 -15 1
-29 20 -55 74 -18 39 -55 110 -82 156 -26 46 -48 85 -48 86 0 8 319 1 335 -8z
m-87 -493 c-7 -15 -14 -21 -16 -15 -5 16 5 41 17 41 7 0 6 -10 -1 -26z m-368
-1910 c30 -8 77 -55 90 -90 39 -101 -40 -214 -149 -214 -72 0 -141 54 -156
120 -6 29 -1 37 77 115 49 50 89 83 98 81 8 -3 26 -8 40 -12z"/>
</g>
</svg>
